<svg xmlns="http://www.w3.org/2000/svg" version="1.1" xmlns:xlink="http://www.w3.org/1999/xlink" width="512" height="512" x="0" y="0" viewBox="0 0 512 512" style="enable-background:new 0 0 512 512" xml:space="preserve" class=""><g><path d="M377 242c-74.441 0-135 60.559-135 135s60.559 135 135 135 135-60.559 135-135-60.559-135-135-135zm60 150h-60c-8.29 0-15-6.71-15-15v-60c0-8.29 6.71-15 15-15s15 6.71 15 15v45h45c8.29 0 15 6.71 15 15s-6.71 15-15 15zM481 46c0-8.402-6.598-15-15-15h-75v45c0 8.398-6.598 15-15 15s-15-6.602-15-15V31h-60v45c0 8.398-6.598 15-15 15s-15-6.602-15-15V31h-60v45c0 8.398-6.598 15-15 15s-15-6.602-15-15V31h-60v45c0 8.398-6.598 15-15 15s-15-6.602-15-15V31H15C6.598 31 0 37.598 0 46v75h481zm0 0" fill="#7E30E1" opacity="1" data-original="#000000" class=""></path><path d="M226 301h3.602c5.476-10.64 11.656-20.855 19.218-30H226c-8.29 0-15-6.71-15-15s6.71-15 15-15h30c6.145 0 11.39 3.707 13.71 8.992C298.45 225.715 335.52 211 376 211h-30c-8.29 0-15-6.71-15-15s6.71-15 15-15h30c8.29 0 15 6.71 15 15s-6.71 15-15 15c39.855 0 76.453 14.21 105 37.82V151H0v285c0 8.29 6.71 15 15 15h214.215C217.656 428.469 211 403.016 211 376c0-16.512 2.96-32.246 7.496-47.297C214.094 326.09 211 321.496 211 316c0-8.29 6.71-15 15-15zm0-120h30c8.29 0 15 6.71 15 15s-6.71 15-15 15h-30c-8.29 0-15-6.71-15-15s6.71-15 15-15zm-90 210h-30c-8.29 0-15-6.71-15-15s6.71-15 15-15h30c8.29 0 15 6.71 15 15s-6.71 15-15 15zm0-60h-30c-8.29 0-15-6.71-15-15s6.71-15 15-15h30c8.29 0 15 6.71 15 15s-6.71 15-15 15zm0-60h-30c-8.29 0-15-6.71-15-15s6.71-15 15-15h30c8.29 0 15 6.71 15 15s-6.71 15-15 15zm0-60h-30c-8.29 0-15-6.71-15-15s6.71-15 15-15h30c8.29 0 15 6.71 15 15s-6.71 15-15 15zM121 15c0-8.402-6.598-15-15-15S91 6.598 91 15v16h30zM211 15c0-8.402-6.598-15-15-15s-15 6.598-15 15v16h30zM301 15c0-8.402-6.598-15-15-15s-15 6.598-15 15v16h30zM391 15c0-8.402-6.598-15-15-15s-15 6.598-15 15v16h30zm0 0" fill="#7E30E1" opacity="1" data-original="#000000" class=""></path></g></svg>