<svg xmlns="http://www.w3.org/2000/svg" width="50" height="50" viewBox="0 0 50 50">
  <g id="header_call" transform="translate(-0.344 -0.023)">
    <g id="Group_1" data-name="Group 1" transform="translate(0.344 0.023)">
      <path id="Path_1" data-name="Path 1" d="M39.882,55.488a4.928,4.928,0,0,0-3.572-1.636A5.1,5.1,0,0,0,32.7,55.478L29.356,58.8c-.275-.148-.55-.285-.814-.422-.38-.19-.74-.369-1.046-.559a36.278,36.278,0,0,1-8.7-7.915,21.379,21.379,0,0,1-2.853-4.5c.867-.792,1.67-1.615,2.452-2.406.3-.3.592-.6.888-.9a4.837,4.837,0,0,0,0-7.3L16.4,31.923c-.328-.327-.666-.665-.983-1-.634-.654-1.3-1.33-1.987-1.963a5.006,5.006,0,0,0-3.54-1.551A5.18,5.18,0,0,0,6.3,28.957l-.021.021L2.681,32.6A7.716,7.716,0,0,0,.388,37.506a18.477,18.477,0,0,0,1.353,7.831A45.426,45.426,0,0,0,9.825,58.8a49.723,49.723,0,0,0,16.56,12.949,25.829,25.829,0,0,0,9.3,2.744c.222.011.454.021.666.021a7.969,7.969,0,0,0,6.1-2.617c.011-.021.032-.032.042-.053a24.007,24.007,0,0,1,1.849-1.91c.454-.433.919-.886,1.374-1.361a5.261,5.261,0,0,0,1.6-3.651,5.069,5.069,0,0,0-1.628-3.62ZM43.665,66.6c-.011,0-.011.011,0,0-.412.443-.835.844-1.289,1.288A27.768,27.768,0,0,0,40.336,70a5.1,5.1,0,0,1-3.974,1.678c-.159,0-.328,0-.486-.011A22.945,22.945,0,0,1,27.633,69.2,46.936,46.936,0,0,1,12.034,57,42.832,42.832,0,0,1,4.425,44.344a15.049,15.049,0,0,1-1.184-6.606A4.841,4.841,0,0,1,4.7,34.6L8.3,31a2.4,2.4,0,0,1,1.606-.749,2.262,2.262,0,0,1,1.543.739l.032.032c.645.6,1.258,1.224,1.9,1.889.328.338.666.675,1,1.024l2.885,2.881a2.012,2.012,0,0,1,0,3.272c-.306.306-.6.612-.909.908-.888.908-1.733,1.752-2.653,2.575-.021.021-.042.032-.053.053a2.15,2.15,0,0,0-.55,2.4l.032.095a23.124,23.124,0,0,0,3.414,5.562l.011.011a38.77,38.77,0,0,0,9.385,8.527,14.437,14.437,0,0,0,1.3.707c.38.19.74.369,1.046.559.042.021.085.053.127.074a2.294,2.294,0,0,0,1.046.264,2.261,2.261,0,0,0,1.606-.728l3.614-3.609a2.392,2.392,0,0,1,1.6-.792,2.153,2.153,0,0,1,1.522.77l.021.021L43.654,63.3a2.085,2.085,0,0,1,.011,3.3Z" transform="translate(-0.344 -24.516)" fill="#7E30E1"/>
      <path id="Path_2" data-name="Path 2" d="M246.108,88.745A13.592,13.592,0,0,1,257.183,99.8a1.417,1.417,0,0,0,1.406,1.182,1.888,1.888,0,0,0,.243-.021,1.426,1.426,0,0,0,1.173-1.646,16.435,16.435,0,0,0-13.4-13.382,1.434,1.434,0,0,0-1.649,1.161,1.409,1.409,0,0,0,1.152,1.646Z" transform="translate(-219.084 -76.853)" fill="#7E30E1"/>
      <path id="Path_3" data-name="Path 3" d="M272.5,22.078A27.062,27.062,0,0,0,250.43.042a1.423,1.423,0,1,0-.465,2.807,24.171,24.171,0,0,1,19.72,19.693,1.417,1.417,0,0,0,1.406,1.182,1.889,1.889,0,0,0,.243-.021,1.4,1.4,0,0,0,1.163-1.625Z" transform="translate(-222.518 -0.023)" fill="#7E30E1"/>
    </g>
  </g>
</svg>
