<svg id="yellow_social_mail" xmlns="http://www.w3.org/2000/svg" width="30" height="30" viewBox="0 0 30 30">
  <circle id="Ellipse_7" data-name="Ellipse 7" cx="15" cy="15" r="15" fill="#7E30E1"/>
  <path id="Path_93" data-name="Path 93" d="M8.685,9.358a1.727,1.727,0,0,0-1.718,1.718v7.635a1.727,1.727,0,0,0,1.718,1.718h12.6A1.727,1.727,0,0,0,23,18.711V11.076a1.727,1.727,0,0,0-1.718-1.718ZM8.81,10.5H21.163l-5.827,5.2a.476.476,0,0,1-.692,0Zm-.7.913,3.925,3.5-3.925,3.77Zm13.743,0v7.265l-3.913-3.77Zm-4.772,4.265,3.74,3.6H9.144l3.752-3.6.984.877a1.679,1.679,0,0,0,2.219,0Z" fill="#fff"/>
</svg>
