<svg id="yellow_social_twitter" xmlns="http://www.w3.org/2000/svg" xmlns:xlink="http://www.w3.org/1999/xlink" width="30" height="30" viewBox="0 0 30 30">
  <defs>
    <clipPath id="clip-path">
      <rect id="Rectangle_36" data-name="Rectangle 36" width="16.14" height="13.719" transform="translate(7 9)" fill="#fff"/>
    </clipPath>
  </defs>
  <circle id="Ellipse_8" data-name="Ellipse 8" cx="15" cy="15" r="15" fill="#7E30E1"/>
  <g id="Group_46" data-name="Group 46" clip-path="url(#clip-path)">
    <path id="Path_94" data-name="Path 94" d="M22.691,9.251a6.5,6.5,0,0,1-2.1.84A3.237,3.237,0,0,0,18.171,9a3.389,3.389,0,0,0-3.31,3.462,3.622,3.622,0,0,0,.084.79,9.276,9.276,0,0,1-6.827-3.62,3.568,3.568,0,0,0-.449,1.742,3.508,3.508,0,0,0,1.474,2.883,3.245,3.245,0,0,1-1.5-.431v.04A3.423,3.423,0,0,0,10.3,17.263a3.119,3.119,0,0,1-.872.121,3.209,3.209,0,0,1-.625-.063,3.334,3.334,0,0,0,3.094,2.4A6.423,6.423,0,0,1,7,21.156a9.1,9.1,0,0,0,5.075,1.554c6.092,0,9.419-5.276,9.419-9.857,0-.153,0-.3-.009-.449a6.9,6.9,0,0,0,1.65-1.792,6.359,6.359,0,0,1-1.9.543,3.453,3.453,0,0,0,1.457-1.917Z" fill="#fff"/>
  </g>
</svg>
