<svg xmlns="http://www.w3.org/2000/svg" width="80" height="50" viewBox="0 0 80 50">
  <g id="header_mail" transform="translate(-4.754 -22.446)">
    <path id="Path_181" data-name="Path 181" d="M84.753,23.5a.1.1,0,0,0,0-.031.375.375,0,0,1-.006-.057.944.944,0,0,0-.056-.245c0-.011,0-.022-.007-.033a.059.059,0,0,1-.009-.014,1.018,1.018,0,0,0-.153-.245c-.014-.017-.029-.032-.045-.048a1.14,1.14,0,0,0-.209-.177c-.008-.005-.015-.012-.023-.017a1.244,1.244,0,0,0-.279-.12L83.9,22.49a1.3,1.3,0,0,0-.32-.044H5.933a1.3,1.3,0,0,0-.32.044c-.024.006-.046.012-.068.019a1.244,1.244,0,0,0-.279.12c-.008,0-.015.011-.023.017a1.14,1.14,0,0,0-.209.177c-.015.016-.03.031-.045.048a1.017,1.017,0,0,0-.153.245s-.007.009-.009.014,0,.022-.007.033a.945.945,0,0,0-.056.245c0,.019-.006.038-.006.057s0,.02,0,.031v47.9c0,.014,0,.027,0,.041a.935.935,0,0,0,.013.113c.005.031.01.06.018.091a.965.965,0,0,0,.038.108c.011.028.022.057.036.084a1.01,1.01,0,0,0,.063.1c.016.024.032.049.051.072a1.085,1.085,0,0,0,.084.091c.022.022.045.043.068.064s.025.025.04.037.024.01.035.018a1.213,1.213,0,0,0,.305.158c.024.008.048.013.072.02a1.3,1.3,0,0,0,.329.051c.008,0,.016,0,.024,0H83.573c.008,0,.016,0,.023,0a1.3,1.3,0,0,0,.33-.051.613.613,0,0,0,.068-.02,1.213,1.213,0,0,0,.306-.158c.011-.008.024-.01.035-.018s.026-.025.04-.037a.79.79,0,0,0,.068-.064A1.085,1.085,0,0,0,84.527,72c.018-.023.034-.047.051-.072a1.007,1.007,0,0,0,.063-.1c.014-.027.025-.055.036-.084a.968.968,0,0,0,.038-.108c.008-.03.013-.06.018-.091a.935.935,0,0,0,.013-.113c0-.014,0-.027,0-.041ZM32.465,45.228l11.516,8.829a1.294,1.294,0,0,0,1.541,0l11.517-8.829L81.014,70.339H8.491ZM7.114,68.531V25.791L30.676,43.855ZM58.828,43.855,82.39,25.791V68.531ZM80.385,24.549,56.419,42.928l-.014.008-.013.012-11.64,8.922L33.115,42.949l-.013-.012-.014-.008L9.117,24.549Z" fill="#ED7D31"/>
  </g>
</svg>
