<svg id="yellow_social_in" xmlns="http://www.w3.org/2000/svg" xmlns:xlink="http://www.w3.org/1999/xlink" width="30" height="30" viewBox="0 0 30 30">
  <defs>
    <clipPath id="clip-path">
      <rect id="Rectangle_35" data-name="Rectangle 35" width="16.947" height="15.333" transform="translate(7 6)" fill="#fff"/>
    </clipPath>
  </defs>
  <circle id="Ellipse_6" data-name="Ellipse 6" cx="15" cy="15" r="15" fill="#333"/>
  <g id="Group_45" data-name="Group 45" clip-path="url(#clip-path)">
    <path id="Path_90" data-name="Path 90" d="M10.729,10.917h-3.3V21.333h3.3Z" fill="#fff"/>
    <path id="Path_91" data-name="Path 91" d="M19.754,10.815a3.393,3.393,0,0,0-3.3,1.734V10.913H12.746c.049.869,0,10.416,0,10.416h3.711V15.693a2.411,2.411,0,0,1,.08-.851,1.888,1.888,0,0,1,1.786-1.277c1.288,0,1.876.962,1.876,2.372v5.392h3.747V15.538C23.946,12.31,22.1,10.815,19.754,10.815Z" fill="#fff"/>
    <path id="Path_92" data-name="Path 92" d="M9.018,6A1.841,1.841,0,0,0,7,7.809a1.81,1.81,0,0,0,1.969,1.8h.022A1.816,1.816,0,1,0,9.014,6Z" fill="#fff"/>
  </g>
</svg>
